<?xml version="1.0" encoding="UTF-8"?>
<svg width="30px" height="24px" viewBox="0 0 30 24" version="1.1" xmlns="http://www.w3.org/2000/svg" xmlns:xlink="http://www.w3.org/1999/xlink">
    <!-- Generator: Sketch 52.4 (67378) - http://www.bohemiancoding.com/sketch -->
    <title>noun_Image_569636</title>
    <desc>Created with Sketch.</desc>
    <g id="Page-1" stroke="none" stroke-width="1" fill="none" fill-rule="evenodd">
        <g id="noun_Image_569636" fill="#999999">
            <g id="Group">
                <path d="M27.0625,0.0623376623 L3.0625,0.0623376623 C1.5,0.0623376623 0.1875,1.34025974 0.1875,2.92987013 L0.1875,20.9766234 C0.1875,22.5350649 1.46875,23.8441558 3.0625,23.8441558 L27.0625,23.8441558 C28.65625,23.8441558 29.9375,22.5662338 29.9375,20.9766234 L29.9375,2.92987013 C29.9375,1.37142857 28.65625,0.0623376623 27.0625,0.0623376623 Z M28.125,20.9766234 C28.125,21.5688312 27.65625,22.0363636 27.0625,22.0363636 L3.0625,22.0363636 C2.46875,22.0363636 2,21.5688312 2,20.9766234 L2,2.92987013 C2,2.33766234 2.46875,1.87012987 3.0625,1.87012987 L27.0625,1.87012987 C27.65625,1.87012987 28.125,2.33766234 28.125,2.92987013 L28.125,20.9766234 Z" id="Shape" fill-rule="nonzero"></path>
                <path d="M21.28125,11.4077922 C20.9375,10.8155844 20.34375,10.8155844 19.9375,11.3766234 C19.9375,11.3766234 15.875,14.6181818 16.09375,14.2753247 L12.5,6.48311688 C12.125,5.92207792 11.5625,5.92207792 11.21875,6.54545455 L4.5625,18.6077922 C4.21875,19.2 4.53125,19.6987013 5.21875,19.6987013 L24.9375,19.6987013 C25.625,19.6987013 25.90625,19.2311688 25.5625,18.638961 L21.28125,11.4077922 Z" id="Path"></path>
            </g>
        </g>
    </g>
</svg>